<svg width="32" height="32" viewBox="0 0 32 32" fill="none" xmlns="http://www.w3.org/2000/svg">
  <defs>
    <linearGradient id="body" x1="8" y1="4" x2="24" y2="26" gradientUnits="userSpaceOnUse">
      <stop stop-color="#F4EDFF"/>
      <stop offset="0.34" stop-color="#A98BFF"/>
      <stop offset="0.67" stop-color="#6EA8FF"/>
      <stop offset="1" stop-color="#2E1F75"/>
    </linearGradient>
    <filter id="glow" x="0" y="0" width="32" height="32" color-interpolation-filters="sRGB">
      <feGaussianBlur stdDeviation="1.2" result="blur"/>
      <feColorMatrix in="blur" type="matrix" values="0 0 0 0 0.62 0 0 0 0 0.42 0 0 0 0 1 0 0 0 0.75 0"/>
      <feMerge><feMergeNode/><feMergeNode in="SourceGraphic"/></feMerge>
    </filter>
  </defs>
  <path d="M8 4.5 25 17.2 16.9 18.7 12.6 27.3 8 4.5Z" fill="url(#body)" fill-opacity="0.95" filter="url(#glow)"/>
  <path d="M8 4.5 25 17.2 16.9 18.7 12.6 27.3 8 4.5Z" stroke="#F2ECFF" stroke-width="1.6" stroke-linejoin="round"/>
  <path d="M10.2 7.8 21.8 16.2 16 17.2 12.9 23.8 10.2 7.8Z" fill="#FFFFFF" fill-opacity="0.16"/>
  <path d="M6.5 3.7C10.2 1.7 16.2 2 20.2 5.2" stroke="#B894FF" stroke-opacity="0.72" stroke-width="0.9" stroke-linecap="round"/>
  <circle cx="12" cy="10" r="1" fill="#FFFFFF" fill-opacity="0.9"/>
  <circle cx="15.8" cy="14.4" r="0.8" fill="#8FE4FF" fill-opacity="0.9"/>
  <circle cx="13.4" cy="18.5" r="0.65" fill="#FFDDA8" fill-opacity="0.85"/>
  <path d="M13.5 26.5 9.5 30M16.5 25.2 14.5 29M18.2 23.4 19.8 26.5" stroke="#B894FF" stroke-opacity="0.38" stroke-width="0.8" stroke-linecap="round"/>
</svg>
